# xmcd
#
# Track frame offsets:
#	150
#	14482
#	29572
#	46120
#	60277
#	74422
#	87750
#	105165
#	121215
#	134240
#	147982
#
# Disc length: 2181 seconds
# Revision: 7
# Processed by: cddbd v1.5.2PL0 Copyright (c) Steve Scherf et al.
# Submitted via: dBpowerAMP V12.0
#
DISCID=9408830b
DTITLE=Chet Atkins with Tommy Emmanuel - The Day Finger Pickers Took Over The World
DYEAR=1997
DGENRE=Country
TTITLE0=Borsalino
TTITLE1=To 'B' or Not to 'B'
TTITLE2=The Day Finger Pickers Took Over The World
TTITLE3=Tip Toe Through The Bluegrass
TTITLE4=News From the Outback
TTITLE5=Ode to Mel Bay
TTITLE6=Dixie McGuire
TTITLE7=Saltwater
TTITLE8=Mr. Guitar
TTITLE9=Road to Gundaghi\Waltzing Matilda
TTITLE10=Smokey Mountain Lullaby
EXTD=
EXTT0=
EXTT1=
EXTT2=
EXTT3=
EXTT4=
EXTT5=
EXTT6=
EXTT7=
EXTT8=
EXTT9=
EXTT10=
PLAYORDER=
